<svg xmlns="http://www.w3.org/2000/svg" viewBox="0 0 128 128" width="128" height="128">
  <defs>
    <clipPath id="gourdOutline"><path d="M 76.00 64.00 L 76.35 66.36 L 77.38 68.71 L 78.98 71.05 L 81.01 73.39 L 83.28 75.71 L 85.62 78.01 L 87.87 80.29 L 89.89 82.54 L 91.60 84.77 L 92.95 86.96 L 93.92 89.12 L 94.53 91.24 L 94.82 93.32 L 94.81 95.35 L 94.56 97.33 L 94.11 99.27 L 93.50 101.15 L 92.75 102.97 L 91.89 104.73 L 90.95 106.43 L 89.93 108.06 L 88.84 109.62 L 87.71 111.12 L 86.53 112.54 L 85.30 113.89 L 84.04 115.16 L 82.75 116.35 L 81.42 117.46 L 80.07 118.49 L 78.69 119.43 L 77.29 120.29 L 75.86 121.06 L 74.42 121.75 L 72.96 122.34 L 71.49 122.85 L 70.01 123.26 L 68.51 123.58 L 67.01 123.82 L 65.51 123.95 L 64.00 124.00 L 62.49 123.95 L 60.99 123.82 L 59.49 123.58 L 57.99 123.26 L 56.51 122.85 L 55.04 122.34 L 53.58 121.75 L 52.14 121.06 L 50.71 120.29 L 49.31 119.43 L 47.93 118.49 L 46.58 117.46 L 45.25 116.35 L 43.96 115.16 L 42.70 113.89 L 41.47 112.54 L 40.29 111.12 L 39.16 109.62 L 38.07 108.06 L 37.05 106.43 L 36.11 104.73 L 35.25 102.97 L 34.50 101.15 L 33.89 99.27 L 33.44 97.33 L 33.19 95.35 L 33.18 93.32 L 33.47 91.24 L 34.08 89.12 L 35.05 86.96 L 36.40 84.77 L 38.11 82.54 L 40.13 80.29 L 42.38 78.01 L 44.72 75.71 L 46.99 73.39 L 49.02 71.05 L 50.62 68.71 L 51.65 66.36 L 52.00 64.00 L 51.65 61.64 L 50.62 59.29 L 49.02 56.95 L 46.99 54.61 L 44.72 52.29 L 42.38 49.99 L 40.13 47.71 L 38.11 45.46 L 36.40 43.23 L 35.05 41.04 L 34.08 38.88 L 33.47 36.76 L 33.18 34.68 L 33.19 32.65 L 33.44 30.67 L 33.89 28.73 L 34.50 26.85 L 35.25 25.03 L 36.11 23.27 L 37.05 21.57 L 38.07 19.94 L 39.16 18.38 L 40.29 16.88 L 41.47 15.46 L 42.70 14.11 L 43.96 12.84 L 45.25 11.65 L 46.58 10.54 L 47.93 9.51 L 49.31 8.57 L 50.71 7.71 L 52.14 6.94 L 53.58 6.25 L 55.04 5.66 L 56.51 5.15 L 57.99 4.74 L 59.49 4.42 L 60.99 4.18 L 62.49 4.05 L 64.00 4.00 L 65.51 4.05 L 67.01 4.18 L 68.51 4.42 L 70.01 4.74 L 71.49 5.15 L 72.96 5.66 L 74.42 6.25 L 75.86 6.94 L 77.29 7.71 L 78.69 8.57 L 80.07 9.51 L 81.42 10.54 L 82.75 11.65 L 84.04 12.84 L 85.30 14.11 L 86.53 15.46 L 87.71 16.88 L 88.84 18.38 L 89.93 19.94 L 90.95 21.57 L 91.89 23.27 L 92.75 25.03 L 93.50 26.85 L 94.11 28.73 L 94.56 30.67 L 94.81 32.65 L 94.82 34.68 L 94.53 36.76 L 93.92 38.88 L 92.95 41.04 L 91.60 43.23 L 89.89 45.46 L 87.87 47.71 L 85.62 49.99 L 83.28 52.29 L 81.01 54.61 L 78.98 56.95 L 77.38 59.29 L 76.35 61.64 L 76.00 64.00 Z"></path></clipPath>
  </defs>
  <g clip-path="url(#gourdOutline)">
    <path d="M 52.00 64.00 L 51.84 62.43 L 51.37 60.86 L 50.62 59.29 L 49.61 57.73 L 48.38 56.17 L 46.99 54.61 L 45.49 53.07 L 43.94 51.53 L 42.38 49.99 L 40.86 48.47 L 39.43 46.96 L 38.11 45.46 L 36.93 43.97 L 35.91 42.50 L 35.05 41.04 L 34.36 39.60 L 33.84 38.17 L 33.47 36.76 L 33.24 35.37 L 33.15 34.00 L 33.19 32.65 L 33.33 31.32 L 33.57 30.02 L 33.89 28.73 L 34.28 27.47 L 34.74 26.24 L 35.25 25.03 L 35.81 23.85 L 36.41 22.70 L 37.05 21.57 L 37.73 20.48 L 38.43 19.41 L 39.16 18.38 L 39.91 17.37 L 40.68 16.40 L 41.47 15.46 L 42.28 14.55 L 43.11 13.68 L 43.96 12.84 L 44.82 12.04 L 45.69 11.27 L 46.58 10.54 L 47.48 9.84 L 48.39 9.19 L 49.31 8.57 L 50.24 7.99 L 51.18 7.44 L 52.14 6.94 L 53.10 6.47 L 54.06 6.04 L 55.04 5.66 L 56.02 5.31 L 57.00 5.00 L 57.99 4.74 L 58.99 4.51 L 59.99 4.33 L 60.99 4.18 L 61.99 4.08 L 62.99 4.02 L 64.00 4.00 L 65.01 4.02 L 66.01 4.08 L 67.01 4.18 L 68.01 4.33 L 69.01 4.51 L 70.01 4.74 L 71.00 5.00 L 71.98 5.31 L 72.96 5.66 L 73.94 6.04 L 74.90 6.47 L 75.86 6.94 L 76.82 7.44 L 77.76 7.99 L 78.69 8.57 L 79.61 9.19 L 80.52 9.84 L 81.42 10.54 L 82.31 11.27 L 83.18 12.04 L 69.09 44.95 L 68.90 44.67 L 68.71 44.40 L 68.51 44.14 L 68.29 43.90 L 68.07 43.67 L 67.84 43.46 L 67.60 43.26 L 67.35 43.08 L 67.10 42.91 L 66.83 42.75 L 66.57 42.61 L 66.30 42.48 L 66.02 42.37 L 65.74 42.27 L 65.45 42.19 L 65.17 42.12 L 64.88 42.07 L 64.59 42.03 L 64.29 42.01 L 64.00 42.00 L 63.71 42.01 L 63.41 42.03 L 63.12 42.07 L 62.83 42.12 L 62.55 42.19 L 62.26 42.27 L 61.98 42.37 L 61.70 42.48 L 61.43 42.61 L 61.17 42.75 L 60.90 42.91 L 60.65 43.08 L 60.40 43.26 L 60.16 43.46 L 59.93 43.67 L 59.71 43.90 L 59.49 44.14 L 59.29 44.40 L 59.10 44.67 L 58.91 44.95 L 58.74 45.24 L 58.58 45.55 L 58.44 45.87 L 58.30 46.20 L 58.18 46.55 L 58.07 46.90 L 57.98 47.27 L 57.90 47.65 L 57.83 48.04 L 57.78 48.44 L 57.74 48.86 L 57.72 49.28 L 57.71 49.71 L 57.72 50.15 L 57.73 50.61 L 57.76 51.07 L 57.81 51.54 L 57.86 52.02 L 57.93 52.51 L 58.00 53.00 L 58.08 53.50 L 58.18 54.01 L 58.27 54.53 L 58.38 55.05 L 58.48 55.58 L 58.59 56.12 L 58.70 56.66 L 58.81 57.20 L 58.92 57.75 L 59.02 58.31 L 59.12 58.86 L 59.21 59.43 L 59.30 59.99 L 59.38 60.56 L 59.44 61.13 L 59.50 61.70 L 59.54 62.27 L 59.57 62.85 L 59.59 63.42 L 59.60 64.00 Z" fill="#f56742"></path>
    <path d="M 83.18 12.04 L 84.04 12.84 L 84.89 13.68 L 85.72 14.55 L 86.53 15.46 L 87.32 16.40 L 88.09 17.37 L 88.84 18.38 L 89.57 19.41 L 90.27 20.48 L 90.95 21.57 L 91.59 22.70 L 92.19 23.85 L 92.75 25.03 L 93.26 26.24 L 93.72 27.47 L 94.11 28.73 L 94.43 30.02 L 94.67 31.32 L 94.81 32.65 L 94.85 34.00 L 94.76 35.37 L 94.53 36.76 L 94.16 38.17 L 93.64 39.60 L 92.95 41.04 L 92.09 42.50 L 91.07 43.97 L 89.89 45.46 L 88.57 46.96 L 87.14 48.47 L 85.62 49.99 L 84.06 51.53 L 82.51 53.07 L 81.01 54.61 L 79.62 56.17 L 78.39 57.73 L 77.38 59.29 L 76.63 60.86 L 76.16 62.43 L 76.00 64.00 L 76.16 65.57 L 76.63 67.14 L 77.38 68.71 L 78.39 70.27 L 79.62 71.83 L 81.01 73.39 L 82.51 74.93 L 84.06 76.47 L 85.62 78.01 L 87.14 79.53 L 88.57 81.04 L 89.89 82.54 L 91.07 84.03 L 92.09 85.50 L 92.95 86.96 L 93.64 88.40 L 94.16 89.83 L 94.53 91.24 L 94.76 92.63 L 94.85 94.00 L 94.81 95.35 L 94.67 96.68 L 94.43 97.98 L 94.11 99.27 L 93.72 100.53 L 93.26 101.76 L 92.75 102.97 L 92.19 104.15 L 91.59 105.30 L 90.95 106.43 L 90.27 107.52 L 89.57 108.59 L 88.84 109.62 L 88.09 110.63 L 87.32 111.60 L 86.53 112.54 L 85.72 113.45 L 84.89 114.32 L 84.04 115.16 L 83.18 115.96 L 69.09 83.05 L 69.26 82.76 L 69.42 82.45 L 69.56 82.13 L 69.70 81.80 L 69.82 81.45 L 69.93 81.10 L 70.02 80.73 L 70.10 80.35 L 70.17 79.96 L 70.22 79.56 L 70.26 79.14 L 70.28 78.72 L 70.29 78.29 L 70.28 77.85 L 70.27 77.39 L 70.24 76.93 L 70.19 76.46 L 70.14 75.98 L 70.07 75.49 L 70.00 75.00 L 69.92 74.50 L 69.82 73.99 L 69.73 73.47 L 69.62 72.95 L 69.52 72.42 L 69.41 71.88 L 69.30 71.34 L 69.19 70.80 L 69.08 70.25 L 68.98 69.69 L 68.88 69.14 L 68.79 68.57 L 68.70 68.01 L 68.62 67.44 L 68.56 66.87 L 68.50 66.30 L 68.46 65.73 L 68.43 65.15 L 68.41 64.58 L 68.40 64.00 L 68.41 63.42 L 68.43 62.85 L 68.46 62.27 L 68.50 61.70 L 68.56 61.13 L 68.62 60.56 L 68.70 59.99 L 68.79 59.43 L 68.88 58.86 L 68.98 58.31 L 69.08 57.75 L 69.19 57.20 L 69.30 56.66 L 69.41 56.12 L 69.52 55.58 L 69.62 55.05 L 69.73 54.53 L 69.82 54.01 L 69.92 53.50 L 70.00 53.00 L 70.07 52.51 L 70.14 52.02 L 70.19 51.54 L 70.24 51.07 L 70.27 50.61 L 70.28 50.15 L 70.29 49.71 L 70.28 49.28 L 70.26 48.86 L 70.22 48.44 L 70.17 48.04 L 70.10 47.65 L 70.02 47.27 L 69.93 46.90 L 69.82 46.55 L 69.70 46.20 L 69.56 45.87 L 69.42 45.55 L 69.26 45.24 L 69.09 44.95 Z" fill="#41bf6a"></path>
    <path d="M 83.18 115.96 L 82.31 116.73 L 81.42 117.46 L 80.52 118.16 L 79.61 118.81 L 78.69 119.43 L 77.76 120.01 L 76.82 120.56 L 75.86 121.06 L 74.90 121.53 L 73.94 121.96 L 72.96 122.34 L 71.98 122.69 L 71.00 123.00 L 70.01 123.26 L 69.01 123.49 L 68.01 123.67 L 67.01 123.82 L 66.01 123.92 L 65.01 123.98 L 64.00 124.00 L 62.99 123.98 L 61.99 123.92 L 60.99 123.82 L 59.99 123.67 L 58.99 123.49 L 57.99 123.26 L 57.00 123.00 L 56.02 122.69 L 55.04 122.34 L 54.06 121.96 L 53.10 121.53 L 52.14 121.06 L 51.18 120.56 L 50.24 120.01 L 49.31 119.43 L 48.39 118.81 L 47.48 118.16 L 46.58 117.46 L 45.69 116.73 L 44.82 115.96 L 43.96 115.16 L 43.11 114.32 L 42.28 113.45 L 41.47 112.54 L 40.68 111.60 L 39.91 110.63 L 39.16 109.62 L 38.43 108.59 L 37.73 107.52 L 37.05 106.43 L 36.41 105.30 L 35.81 104.15 L 35.25 102.97 L 34.74 101.76 L 34.28 100.53 L 33.89 99.27 L 33.57 97.98 L 33.33 96.68 L 33.19 95.35 L 33.15 94.00 L 33.24 92.63 L 33.47 91.24 L 33.84 89.83 L 34.36 88.40 L 35.05 86.96 L 35.91 85.50 L 36.93 84.03 L 38.11 82.54 L 39.43 81.04 L 40.86 79.53 L 42.38 78.01 L 43.94 76.47 L 45.49 74.93 L 46.99 73.39 L 48.38 71.83 L 49.61 70.27 L 50.62 68.71 L 51.37 67.14 L 51.84 65.57 L 52.00 64.00 L 59.60 64.00 L 59.59 64.58 L 59.57 65.15 L 59.54 65.73 L 59.50 66.30 L 59.44 66.87 L 59.38 67.44 L 59.30 68.01 L 59.21 68.57 L 59.12 69.14 L 59.02 69.69 L 58.92 70.25 L 58.81 70.80 L 58.70 71.34 L 58.59 71.88 L 58.48 72.42 L 58.38 72.95 L 58.27 73.47 L 58.18 73.99 L 58.08 74.50 L 58.00 75.00 L 57.93 75.49 L 57.86 75.98 L 57.81 76.46 L 57.76 76.93 L 57.73 77.39 L 57.72 77.85 L 57.71 78.29 L 57.72 78.72 L 57.74 79.14 L 57.78 79.56 L 57.83 79.96 L 57.90 80.35 L 57.98 80.73 L 58.07 81.10 L 58.18 81.45 L 58.30 81.80 L 58.44 82.13 L 58.58 82.45 L 58.74 82.76 L 58.91 83.05 L 59.10 83.33 L 59.29 83.60 L 59.49 83.86 L 59.71 84.10 L 59.93 84.33 L 60.16 84.54 L 60.40 84.74 L 60.65 84.92 L 60.90 85.09 L 61.17 85.25 L 61.43 85.39 L 61.70 85.52 L 61.98 85.63 L 62.26 85.73 L 62.55 85.81 L 62.83 85.88 L 63.12 85.93 L 63.41 85.97 L 63.71 85.99 L 64.00 86.00 L 64.29 85.99 L 64.59 85.97 L 64.88 85.93 L 65.17 85.88 L 65.45 85.81 L 65.74 85.73 L 66.02 85.63 L 66.30 85.52 L 66.57 85.39 L 66.83 85.25 L 67.10 85.09 L 67.35 84.92 L 67.60 84.74 L 67.84 84.54 L 68.07 84.33 L 68.29 84.10 L 68.51 83.86 L 68.71 83.60 L 68.90 83.33 L 69.09 83.05 Z" fill="#f5bf2e"></path>
    <path d="M 59.60 64.00 L 59.37 64.00 L 59.14 64.00 L 58.91 64.00 L 58.68 64.00 L 58.45 64.00 L 58.22 64.00 L 57.99 64.00 L 57.76 64.00 L 57.53 64.00 L 57.30 64.00 L 57.07 64.00 L 56.84 64.00 L 56.61 64.00 L 56.38 64.00 L 56.15 64.00 L 55.92 64.00 L 55.69 64.00 L 55.46 64.00 L 55.23 64.00 L 55.00 64.00 L 54.77 64.00 L 54.54 64.00 L 54.31 64.00 L 54.08 64.00 L 53.85 64.00 L 53.62 64.00 L 53.39 64.00 L 53.16 64.00 L 52.93 64.00 L 52.70 64.00 L 52.47 64.00 L 52.24 64.00 L 52.01 64.00 L 51.78 64.00 L 51.55 64.00 L 51.32 64.00 L 51.09 64.00 L 50.86 64.00 L 50.63 64.00 L 50.40 64.00" fill="none" stroke="#ffffff" stroke-width="4" stroke-linecap="butt" stroke-linejoin="round"></path>
    <path d="M 69.09 44.95 L 69.54 43.95 L 70.01 42.96 L 70.48 41.96 L 70.96 40.96 L 71.44 39.97 L 71.92 38.97 L 72.40 37.98 L 72.88 36.98 L 73.35 35.98 L 73.82 34.99 L 74.29 33.99 L 74.74 33.00 L 75.20 32.00 L 75.64 31.00 L 76.08 30.01 L 76.51 29.01 L 76.94 28.02 L 77.36 27.02 L 77.77 26.02 L 78.18 25.03 L 78.58 24.03 L 78.98 23.04 L 79.37 22.04 L 79.76 21.05 L 80.15 20.05 L 80.53 19.05 L 80.92 18.06 L 81.30 17.06 L 81.67 16.07 L 82.05 15.07 L 82.42 14.07 L 82.80 13.08 L 83.17 12.08 L 83.54 11.09 L 83.91 10.09 L 84.28 9.09 L 84.65 8.10 L 85.02 7.10 L 85.39 6.11 L 85.76 5.11" fill="none" stroke="#ffffff" stroke-width="4" stroke-linecap="butt" stroke-linejoin="round"></path>
    <path d="M 69.09 83.05 L 69.54 84.05 L 70.01 85.04 L 70.48 86.04 L 70.96 87.04 L 71.44 88.03 L 71.92 89.03 L 72.40 90.02 L 72.88 91.02 L 73.35 92.02 L 73.82 93.01 L 74.29 94.01 L 74.74 95.00 L 75.20 96.00 L 75.64 97.00 L 76.08 97.99 L 76.51 98.99 L 76.94 99.98 L 77.36 100.98 L 77.77 101.98 L 78.18 102.97 L 78.58 103.97 L 78.98 104.96 L 79.37 105.96 L 79.76 106.95 L 80.15 107.95 L 80.53 108.95 L 80.92 109.94 L 81.30 110.94 L 81.67 111.93 L 82.05 112.93 L 82.42 113.93 L 82.80 114.92 L 83.17 115.92 L 83.54 116.91 L 83.91 117.91 L 84.28 118.91 L 84.65 119.90 L 85.02 120.90 L 85.39 121.89 L 85.76 122.89" fill="none" stroke="#ffffff" stroke-width="4" stroke-linecap="butt" stroke-linejoin="round"></path>
    <path d="M 68.80 64.00 L 68.82 64.94 L 68.88 65.88 L 68.97 66.82 L 69.10 67.75 L 69.26 68.68 L 69.44 69.60 L 69.64 70.51 L 69.86 71.42 L 70.07 72.31 L 70.29 73.18 L 70.50 74.05 L 70.69 74.90 L 70.87 75.73 L 71.02 76.54 L 71.14 77.33 L 71.23 78.11 L 71.29 78.86 L 71.31 79.59 L 71.29 80.29 L 71.23 80.97 L 71.13 81.62 L 70.99 82.25 L 70.82 82.85 L 70.61 83.42 L 70.37 83.96 L 70.09 84.46 L 69.78 84.94 L 69.44 85.38 L 69.08 85.80 L 68.70 86.17 L 68.29 86.52 L 67.86 86.83 L 67.41 87.10 L 66.95 87.34 L 66.48 87.54 L 66.00 87.70 L 65.51 87.83 L 65.01 87.93 L 64.50 87.98 L 64.00 88.00 L 63.50 87.98 L 62.99 87.93 L 62.49 87.83 L 62.00 87.70 L 61.52 87.54 L 61.05 87.34 L 60.59 87.10 L 60.14 86.83 L 59.71 86.52 L 59.30 86.17 L 58.92 85.80 L 58.56 85.38 L 58.22 84.94 L 57.91 84.46 L 57.63 83.96 L 57.39 83.42 L 57.18 82.85 L 57.01 82.25 L 56.87 81.62 L 56.77 80.97 L 56.71 80.29 L 56.69 79.59 L 56.71 78.86 L 56.77 78.11 L 56.86 77.33 L 56.98 76.54 L 57.13 75.73 L 57.31 74.90 L 57.50 74.05 L 57.71 73.18 L 57.93 72.31 L 58.14 71.42 L 58.36 70.51 L 58.56 69.60 L 58.74 68.68 L 58.90 67.75 L 59.03 66.82 L 59.12 65.88 L 59.18 64.94 L 59.20 64.00 L 59.18 63.06 L 59.12 62.12 L 59.03 61.18 L 58.90 60.25 L 58.74 59.32 L 58.56 58.40 L 58.36 57.49 L 58.14 56.58 L 57.93 55.69 L 57.71 54.82 L 57.50 53.95 L 57.31 53.10 L 57.13 52.27 L 56.98 51.46 L 56.86 50.67 L 56.77 49.89 L 56.71 49.14 L 56.69 48.41 L 56.71 47.71 L 56.77 47.03 L 56.87 46.38 L 57.01 45.75 L 57.18 45.15 L 57.39 44.58 L 57.63 44.04 L 57.91 43.54 L 58.22 43.06 L 58.56 42.62 L 58.92 42.20 L 59.30 41.83 L 59.71 41.48 L 60.14 41.17 L 60.59 40.90 L 61.05 40.66 L 61.52 40.46 L 62.00 40.30 L 62.49 40.17 L 62.99 40.07 L 63.50 40.02 L 64.00 40.00 L 64.50 40.02 L 65.01 40.07 L 65.51 40.17 L 66.00 40.30 L 66.48 40.46 L 66.95 40.66 L 67.41 40.90 L 67.86 41.17 L 68.29 41.48 L 68.70 41.83 L 69.08 42.20 L 69.44 42.62 L 69.78 43.06 L 70.09 43.54 L 70.37 44.04 L 70.61 44.58 L 70.82 45.15 L 70.99 45.75 L 71.13 46.38 L 71.23 47.03 L 71.29 47.71 L 71.31 48.41 L 71.29 49.14 L 71.23 49.89 L 71.14 50.67 L 71.02 51.46 L 70.87 52.27 L 70.69 53.10 L 70.50 53.95 L 70.29 54.82 L 70.07 55.69 L 69.86 56.58 L 69.64 57.49 L 69.44 58.40 L 69.26 59.32 L 69.10 60.25 L 68.97 61.18 L 68.88 62.12 L 68.82 63.06 L 68.80 64.00 Z" fill="none" stroke="#ffffff" stroke-width="4"></path>
    <path d="M 68.40 64.00 L 68.41 64.86 L 68.46 65.73 L 68.53 66.59 L 68.62 67.44 L 68.74 68.29 L 68.88 69.14 L 69.03 69.97 L 69.19 70.80 L 69.35 71.61 L 69.52 72.42 L 69.68 73.21 L 69.82 73.99 L 69.96 74.75 L 70.07 75.49 L 70.17 76.22 L 70.24 76.93 L 70.28 77.62 L 70.29 78.29 L 70.27 78.93 L 70.22 79.56 L 70.14 80.16 L 70.02 80.73 L 69.88 81.28 L 69.70 81.80 L 69.49 82.29 L 69.26 82.76 L 69.00 83.19 L 68.71 83.60 L 68.40 83.98 L 68.07 84.33 L 67.72 84.64 L 67.35 84.92 L 66.97 85.17 L 66.57 85.39 L 66.16 85.58 L 65.74 85.73 L 65.31 85.85 L 64.88 85.93 L 64.44 85.98 L 64.00 86.00 L 63.56 85.98 L 63.12 85.93 L 62.69 85.85 L 62.26 85.73 L 61.84 85.58 L 61.43 85.39 L 61.03 85.17 L 60.65 84.92 L 60.28 84.64 L 59.93 84.33 L 59.60 83.98 L 59.29 83.60 L 59.00 83.19 L 58.74 82.76 L 58.51 82.29 L 58.30 81.80 L 58.12 81.28 L 57.98 80.73 L 57.86 80.16 L 57.78 79.56 L 57.73 78.93 L 57.71 78.29 L 57.72 77.62 L 57.76 76.93 L 57.83 76.22 L 57.93 75.49 L 58.04 74.75 L 58.18 73.99 L 58.32 73.21 L 58.48 72.42 L 58.65 71.61 L 58.81 70.80 L 58.97 69.97 L 59.12 69.14 L 59.26 68.29 L 59.38 67.44 L 59.47 66.59 L 59.54 65.73 L 59.59 64.86 L 59.60 64.00 L 59.59 63.14 L 59.54 62.27 L 59.47 61.41 L 59.38 60.56 L 59.26 59.71 L 59.12 58.86 L 58.97 58.03 L 58.81 57.20 L 58.65 56.39 L 58.48 55.58 L 58.32 54.79 L 58.18 54.01 L 58.04 53.25 L 57.93 52.51 L 57.83 51.78 L 57.76 51.07 L 57.72 50.38 L 57.71 49.71 L 57.73 49.07 L 57.78 48.44 L 57.86 47.84 L 57.98 47.27 L 58.12 46.72 L 58.30 46.20 L 58.51 45.71 L 58.74 45.24 L 59.00 44.81 L 59.29 44.40 L 59.60 44.02 L 59.93 43.67 L 60.28 43.36 L 60.65 43.08 L 61.03 42.83 L 61.43 42.61 L 61.84 42.42 L 62.26 42.27 L 62.69 42.15 L 63.12 42.07 L 63.56 42.02 L 64.00 42.00 L 64.44 42.02 L 64.88 42.07 L 65.31 42.15 L 65.74 42.27 L 66.16 42.42 L 66.57 42.61 L 66.97 42.83 L 67.35 43.08 L 67.72 43.36 L 68.07 43.67 L 68.40 44.02 L 68.71 44.40 L 69.00 44.81 L 69.26 45.24 L 69.49 45.71 L 69.70 46.20 L 69.88 46.72 L 70.02 47.27 L 70.14 47.84 L 70.22 48.44 L 70.27 49.07 L 70.29 49.71 L 70.28 50.38 L 70.24 51.07 L 70.17 51.78 L 70.07 52.51 L 69.96 53.25 L 69.82 54.01 L 69.68 54.79 L 69.52 55.58 L 69.35 56.39 L 69.19 57.20 L 69.03 58.03 L 68.88 58.86 L 68.74 59.71 L 68.62 60.56 L 68.53 61.41 L 68.46 62.27 L 68.41 63.14 L 68.40 64.00 Z" fill="#4b8ee8"></path>
  </g>
</svg>